<?xml version="1.0" encoding="utf-8"?>
<!-- Generator: Adobe Illustrator 22.1.0, SVG Export Plug-In . SVG Version: 6.00 Build 0)  -->
<svg version="1.1" xmlns="http://www.w3.org/2000/svg" xmlns:xlink="http://www.w3.org/1999/xlink" x="0px" y="0px"
	 viewBox="0 0 1000 1000" style="enable-background:new 0 0 1000 1000;" xml:space="preserve">
<style type="text/css">
	.st0{fill:#FFFFFF;}
	.st1{fill:#fa7d19;}
</style>
<g>
	<path class="st0" d="M412.2,863.4c84.7-27.1,149.1-84.7,188.1-157.6c10.2-18.6-11.9-39-28.8-27.1c-23.7,15.2-52.5,30.5-81.3,39
		c-169.4,52.5-347.3-39-399.8-208.4C81.8,480.5,76.7,450,75,419.5c0-22-28.8-28.8-39-10.2C-1.2,482.2-11.4,570.3,14,655
		c15.2,47.4,39,88.1,71.2,123.7c-15.2,13.6-27.1,28.8-35.6,52.5c-13.6,44-1.7,93.2,32.2,123.7c59.3,52.5,149.1,33.9,183-32.2
		c6.8-13.6,11.9-28.8,13.6-45.7C322.4,882,366.4,878.6,412.2,863.4z"/>
	<path class="st0" d="M876.4,722.7c5.1-44,3.4-89.8-11.9-135.5c-27.1-84.7-84.7-149.1-157.6-188.1C688.3,389,668,411,679.8,428
		c15.2,23.7,30.5,52.5,39,81.3c52.5,166-40.7,345.6-208.4,398.1c-28.8,8.5-59.3,13.6-89.8,15.2c-22,0-28.8,28.8-10.2,39
		c72.8,39,160.9,49.1,244,22c47.4-15.2,88.1-39,123.7-71.2c13.6,15.2,28.8,27.1,52.5,35.6c44,13.6,93.2,1.7,123.7-32.2
		c52.5-59.3,33.9-149.1-32.2-183C908.5,729.5,891.6,724.4,876.4,722.7z"/>
	<path class="st1" d="M895,31.5C837.4,1,766.2,24.7,737.4,80.6c-6.8,13.6-11.9,28.8-13.6,45.7c-44-5.1-89.8-3.4-135.5,11.9
		c-84.7,27.1-149.1,84.7-188.1,157.6c-10.2,18.6,11.9,39,28.8,27.1c23.7-15.2,52.5-30.5,81.3-39c166-52.5,345.6,40.7,398.1,208.4
		c8.5,28.8,13.6,59.3,15.2,89.8c0,22,28.8,28.8,39,10.2c39-72.8,49.1-160.9,22-244c-15.2-47.4-39-88.1-71.2-123.7
		c10.2-10.2,20.3-20.3,27.1-33.9C972.9,131.5,950.9,60.3,895,31.5z"/>
	<path class="st0" d="M125.8,278.9c-5.1,44-3.4,89.8,11.9,135.5c27.1,84.7,84.7,149.1,157.6,188.1c18.6,10.2,39-11.9,27.1-28.8
		c-15.2-23.7-30.5-52.5-39-81.3c-52.5-166,40.7-345.6,208.4-398.1c28.8-8.5,59.3-13.6,89.8-15.2c22,0,28.8-28.8,10.2-39
		C518.9-0.7,429.1-10.8,346.1,16.3c-47.4,15.2-88.1,39-123.7,71.2c-13.6-15.2-28.8-27.1-52.5-35.6c-44-13.6-93.2-1.7-123.7,32.2
		C-6.3,141.6,14,231.4,78.4,265.3C93.7,270.4,110.6,275.5,125.8,278.9z"/>
</g>
</svg>
